ply
format ascii 1.0
element vertex 1365
property float x
property float y
property float z
property uchar red
property uchar green
property uchar blue
end_header
-3.18561 -0.834412 0.295847 0 255 0
-3.12883 -0.297993 0.0124861 0 255 0
-2.30415 -0.254981 -0.330709 0 255 0
-1.53499 -0.253887 -0.632069 0 255 0
-0.623487 -0.246945 -0.858778 0 255 0
0.368861 -0.17732 -1.00952 0 255 0
1.24375 -0.124909 -1.04174 0 255 0
1.94898 -0.131432 -0.904954 0 255 0
3.06395 -0.193755 -0.521258 0 255 0
3.35171 -0.245264 -0.392545 0 255 0
3.08755 0.328833 -0.398906 0 255 0
1.92866 0.906509 -0.481312 0 255 0
1.14443 0.464147 -0.613938 0 255 0
0.23284 0.33369 -0.870582 0 255 0
-1.07026 0.157779 -1.07381 0 255 0
-1.59817 -4.23003 11.4622 148 149 94
2.98302 -2.40334 6.89689 164 162 142
-1.09893 -3.28372 10.1675 154 158 122
-2.77607 -2.73738 8.45312 123 120 102
-2.71786 -2.62284 8.07641 181 178 160
-2.68727 -2.59144 7.94231 127 124 102
-2.61876 -2.56537 8.07039 114 114 82
-1.05229 -2.80385 9.44763 170 172 140
-2.32634 -2.42042 8.2962 152 150 111
-0.925069 -2.52766 9.27269 168 172 137
-2.36682 -2.34779 8.18723 102 100 74
-2.4165 -2.28655 8.01228 162 160 136
-2.27766 -2.3231 8.25244 131 130 94
-0.61181 -2.40886 9.30311 182 187 144
-2.42127 -2.19225 7.95257 158 158 135
-2.46982 -2.16115 7.85275 160 156 128
-0.974476 -1.92967 8.64551 168 172 130
-0.655187 -1.84644 8.92725 160 172 132
3.17627 -2.94117 19.5637 163 167 126
-0.920394 -1.73959 8.5392 124 126 84
-0.689664 -1.75516 8.82761 158 168 128
-0.894016 -1.72133 8.54135 174 178 134
-1.6957 -1.71433 8.18226 163 162 140
-2.00137 -1.68629 7.93532 157 155 132
-0.882184 -1.68037 8.56414 138 140 96
0.582108 -1.36318 8.8887 137 144 104
-1.38741 -1.33269 8.33298 165 164 143
-1.15257 -1.28652 8.47186 166 165 136
0.567762 -1.1744 8.87541 142 149 110
1.91543 -0.985506 8.22062 178 174 134
-0.661439 -1.08461 7.45275 171 172 125
0.581602 -1.01921 8.95229 130 136 102
-0.219809 -1.00125 8.31561 236 236 192
-2.46013 -1.14842 9.42517 144 144 96
-1.02592 -0.989327 8.35606 165 164 135
-0.999833 -0.962064 8.36193 159 158 128
-0.639473 -0.925816 8.64981 188 193 151
0.624136 -0.840844 9.07935 218 230 192
1.85469 -0.677372 8.85944 195 200 166
2.05398 -0.596738 8.70669 147 130 92
-0.522827 -0.798936 8.51189 229 231 195
2.03531 -0.583884 8.72107 115 94 58
-0.532715 -0.777818 8.42629 200 202 161
2.05307 -0.537548 8.58847 225 215 180
1.79292 -0.526784 8.29471 126 94 63
2.06669 -0.491128 8.92165 192 178 146
1.78817 -0.455671 8.5763 190 190 156
-0.384453 -0.428488 10.6512 84 62 39
-0.184032 -0.401283 7.71456 98 102 81
1.44376 0.444586 8.07053 186 144 126
0.66315 0.470352 7.73321 61 50 33
0.665385 0.468154 7.65686 135 126 110
1.17961 0.634013 7.92681 100 72 54
1.30689 0.637035 7.84326 188 147 133
-1.40965 0.524036 8.17108 75 54 40
-0.134222 0.575096 7.23877 80 44 26
-0.230211 0.606044 7.06852 68 36 22
-0.961305 0.380117 6.18819 132 138 104
0.452489 0.785467 7.42294 148 126 112
0.882454 0.776229 6.83264 207 204 188
-1.679 0.792538 8.80587 126 79 58
-1.57769 0.964485 9.07142 190 150 132
0.839201 1.01439 7.50701 161 140 133
-1.51732 0.829313 8.22373 158 120 105
-0.267728 0.824659 7.24975 126 94 82
1.05067 0.916701 6.81367 200 198 176
-1.47235 0.861245 8.2308 85 47 31
-1.42748 0.86802 8.17686 81 41 24
-1.51166 1.11843 9.55385 188 152 136
0.610317 0.894465 6.68219 123 122 96
-1.18454 0.848595 7.74384 194 152 131
-1.15863 0.853554 7.75082 136 88 68
0.448696 1.03871 7.54799 84 50 46
-1.4868 1.15583 9.32108 83 41 19
-0.963311 0.944013 7.73269 108 69 55
-0.923187 0.943987 7.6943 121 86 74
0.974195 1.29633 8.01081 102 70 64
0.462764 1.16555 7.67542 88 56 52
0.45816 1.16201 7.59834 169 142 140
-0.966261 0.992603 7.73691 66 33 26
-1.5137 1.30855 9.62359 199 161 137
-1.57267 1.32567 9.64835 182 155 128
0.440237 1.19577 7.63121 65 36 31
-1.52466 1.29761 9.43147 80 40 20
1.1294 1.09263 6.61916 212 208 188
-1.52542 1.36031 9.45368 90 49 28
0.875184 1.13164 6.60948 94 92 74
-0.911686 1.14782 7.81436 152 135 130
0.96047 1.5292 8.24775 119 84 80
0.505933 1.38241 7.80823 91 60 55
-1.41958 1.5974 9.78263 193 176 156
-1.4114 1.5576 9.60515 188 160 146
1.11737 1.20746 6.41208 223 217 199
-0.716375 1.34414 7.85017 161 124 120
-0.90151 1.3503 7.95551 62 30 25
0.321493 1.4951 7.7795 188 155 154
1.02761 1.30402 6.57479 100 98 80
-0.834854 1.369 7.95448 49 20 18
0.91918 1.75677 8.36852 108 75 73
1.01988 1.78298 8.419 78 60 52
0.522804 1.60621 7.97754 63 35 30
-1.05555 1.41678 8.15157 170 129 115
0.446355 1.58235 7.88754 178 150 147
1.07347 1.93114 8.56046 166 152 146
1.14882 1.38112 6.2915 176 163 138
-0.785346 1.61617 8.19293 120 90 84
-1.3005 1.98124 9.78391 165 127 110
0.442461 1.83009 8.12446 87 55 50
0.144144 1.74123 7.91061 91 56 54
-1.12662 2.06178 9.53663 80 32 12
0.428863 1.9614 8.13511 173 150 148
0.488226 2.101 8.35637 172 144 144
-1.21947 2.31982 9.99103 154 125 106
-0.744312 1.92671 8.36845 174 150 150
0.415263 2.10309 8.31661 74 38 38
0.41278 2.08725 8.25792 73 38 38
1.18777 1.80139 6.74759 166 146 138
1.31943 1.75862 6.3869 174 141 119
1.17414 1.84603 6.74659 152 123 110
1.26724 1.87679 6.79215 228 208 196
0.764197 2.40169 8.70846 124 80 76
-1.08633 2.34984 9.50128 66 24 8
-1.00145 2.45353 9.62631 62 28 18
0.411192 2.37253 8.44557 178 152 149
-0.645432 2.29268 8.64702 178 150 148
-0.646403 2.32495 8.63071 162 140 142
-0.505176 2.75465 9.06649 144 124 124
-1.19943 -3.13816 9.67068 152 156 121
-2.80578 -2.76844 8.07852 179 174 142
-1.27883 -3.11135 9.77117 152 150 117
-2.81928 -2.67467 8.17107 172 166 148
-2.71309 -2.63892 8.13635 183 180 162
-0.845531 -2.88141 9.67585 179 181 147
-2.60983 -2.58184 8.1417 114 114 82
-2.54321 -2.5697 8.19026 211 208 162
-1.01839 -2.83459 9.59076 164 167 136
-2.50927 -2.54481 8.16325 162 159 115
-1.00384 -2.79692 9.53184 174 178 146
-2.72626 -2.48013 7.89415 145 145 122
-0.733803 -2.65268 9.48135 198 200 160
-0.913343 -2.59198 9.42317 160 166 131
-0.910821 -2.55682 9.36794 176 178 144
-2.40032 -2.31491 8.14101 160 158 135
2.07793 -1.96606 7.24128 216 214 175
-2.27555 -2.32019 8.25467 128 127 92
-2.19236 -2.2562 8.17624 141 140 101
-2.43703 -2.17326 7.83833 160 158 136
-2.4729 -2.16831 7.85382 162 158 130
-2.48475 -2.19497 8.09601 114 112 77
-0.558996 -2.23618 9.09243 224 226 185
-2.23476 -2.12722 8.09396 150 148 126
-2.33858 -2.05585 8.02329 150 146 118
-0.636534 -2.08927 8.71153 185 192 150
-0.890533 -1.96913 8.95623 168 172 130
-0.921468 -1.90741 8.81205 129 134 90
-0.893155 -1.74617 8.64348 154 156 112
-0.861149 -1.72394 8.64591 182 184 140
-1.98538 -1.70725 8.05184 160 158 134
-0.84757 -1.68393 8.66753 132 136 90
-0.569092 -1.62616 8.73563 175 181 147
-0.600047 -1.58441 8.56651 178 182 148
-1.62623 -1.55633 8.1968 150 148 126
-1.31027 -1.53035 8.58376 184 184 146
-1.55807 -1.51211 8.31864 163 161 138
-0.737784 -1.19586 7.32566 181 182 132
0.5438 -1.17524 8.82342 132 140 102
-0.194062 -1.17158 8.55864 203 210 167
2.14419 -1 8.55876 195 191 151
2.10101 -0.972085 8.45959 140 136 98
2.30119 -0.976113 8.82453 84 72 25
-0.652982 -1.09103 7.48622 174 174 126
0.605345 -1.02301 8.99564 138 145 111
-0.20878 -1.0063 8.34538 231 234 190
1.99837 -0.685696 8.72143 129 126 86
2.01771 -0.610937 9.56371 198 194 152
1.98247 -0.506006 8.51301 196 168 138
1.70477 -0.531099 9.29407 129 110 77
2.08786 -0.494859 8.95858 146 133 100
1.80191 -0.441772 8.41609 141 128 96
1.8769 -0.263523 8.10053 165 128 104
-0.389909 -0.390811 10.5225 128 106 83
-0.249334 -0.4184 7.54969 89 93 70
1.20648 -0.223459 9.12123 158 160 122
-0.690544 -0.408929 8.18667 161 164 140
1.30332 0.535936 8.13105 211 170 151
0.643447 0.462726 7.69742 34 21 6
0.697895 0.470876 7.72867 62 50 36
1.41328 0.616311 8.05585 172 116 92
1.27885 0.621539 8.16402 176 137 112
1.05762 0.58678 7.91743 73 46 27
1.03536 0.604386 7.82243 162 140 120
1.12796 0.617109 7.82807 102 73 55
-1.49074 0.438073 7.86336 192 180 183
-1.41204 0.528898 8.01827 78 60 54
-1.35144 0.564053 8.06956 92 62 53
-1.65771 0.63378 8.46004 142 90 61
-1.56867 0.579186 7.96584 117 75 52
-1.66964 0.623657 8.20753 206 158 126
-0.188022 0.649981 7.09335 180 142 133
-1.69952 0.674016 8.42363 110 64 44
-0.0699963 0.695601 7.16389 152 120 112
0.493101 0.814628 7.42126 78 60 40
0.924209 0.787711 6.91251 212 210 193
-0.205815 0.681816 7.06934 180 142 136
0.960292 0.807076 6.89875 159 156 132
-0.880261 0.726659 7.73865 132 109 99
-0.121256 0.805186 7.51919 119 92 85
-0.884688 0.734736 7.66838 96 68 62
-0.183788 0.734711 7.10431 144 104 94
-0.112712 0.838458 7.44965 81 46 35
0.47707 0.918227 7.40173 178 143 132
-1.57947 0.959485 9.05485 157 118 98
-1.5238 0.828099 8.16994 158 120 106
-1.58446 1.05189 9.35633 123 84 66
-1.46128 0.863792 8.2709 95 56 40
-1.43058 0.8705 8.2761 134 92 77
-1.53639 1.09178 9.44912 179 144 128
-1.38861 0.893109 8.32554 91 50 34
1.07919 1.21404 7.97826 154 131 125
-1.24742 0.868446 7.80616 194 152 134
-1.25427 0.856694 7.70179 194 154 138
1.0534 1.26279 8.02486 194 176 169
0.1941 1.04369 7.46884 100 64 56
-0.985907 0.927039 7.65446 134 92 76
0.967877 1.32968 8.07087 99 67 64
-1.52253 1.29929 9.59431 174 135 111
-0.902851 1.00368 7.74349 64 33 26
0.472202 1.21403 7.71396 55 30 23
-1.54875 1.3241 9.31839 80 42 22
-0.705773 1.09359 7.54089 182 142 136
-0.923611 1.1394 7.67681 69 40 34
-1.43892 1.53105 9.48014 162 134 118
-1.42194 1.63351 9.60432 108 82 63
-0.80805 1.27539 7.56675 128 90 87
0.350113 1.50986 7.83991 159 126 124
1.04837 1.77593 8.50481 81 54 48
1.01354 1.80742 8.56177 128 95 92
0.939755 1.83499 8.44599 90 58 54
1.12317 1.95561 8.67171 122 100 96
-0.834275 1.56664 8.17742 70 34 28
-0.816963 1.58216 8.03156 70 42 38
0.43903 1.78542 8.02359 166 130 126
0.886624 2.10856 8.63193 90 52 50
-0.815163 1.76826 8.21874 57 20 13
0.663065 2.07156 8.4422 116 74 70
-1.1338 2.0284 9.25476 70 30 16
0.485476 2.08013 8.33459 164 142 143
-0.740019 1.92949 8.37407 147 118 115
-1.24851 2.27856 9.81634 169 142 122
-0.210175 2.49964 10.1525 144 124 122
1.25856 1.86951 6.78505 218 198 183
1.31054 1.77017 6.41122 144 96 72
0.912404 2.58141 9.12158 103 64 59
-1.06003 2.31629 9.27972 171 132 120
-1.03271 2.3109 9.20426 96 50 39
0.408808 2.38647 8.51187 90 52 48
-0.636161 2.33083 8.65925 162 143 144
-0.908395 2.75473 9.65628 158 120 112
-0.869523 2.83933 9.77529 113 74 66
-1.34895 -3.27843 9.89485 162 160 134
-1.07809 -3.31782 10.2828 149 153 117
-2.80871 -2.66969 8.1683 166 160 144
-2.71511 -2.63957 8.13953 183 180 164
-1.03097 -2.80412 9.50859 171 174 142
-2.50496 -2.56566 8.26112 176 172 127
-2.70194 -2.35659 7.81605 120 120 87
-2.47559 -2.3796 8.06743 154 154 133
-2.34617 -2.39666 8.17912 166 164 126
-0.872141 -2.5877 9.51694 176 178 144
-2.39562 -2.32062 8.1529 148 146 122
-2.28868 -2.29571 8.14914 133 131 98
-0.444555 -2.30496 9.4869 222 223 185
-2.23137 -2.13124 8.10419 148 148 125
-2.3393 -2.0513 7.99781 149 146 118
-0.69348 -2.07347 9.08215 161 170 128
-0.897343 -1.98634 8.95834 164 168 122
-2.16531 -1.895 8.08874 160 158 132
-0.82263 -1.73808 8.76794 171 174 130
-0.861018 -1.6694 8.59105 130 134 88
-1.46977 -1.66634 8.50876 196 198 157
-1.56006 -1.51789 8.30745 162 160 137
-1.31156 -1.52249 8.55323 196 197 157
-1.38628 -1.33458 8.32985 154 155 134
0.00672146 -1.29973 9.46517 176 176 126
-1.53466 -1.18165 8.10174 182 179 158
-1.14586 -1.16238 8.35516 150 152 124
-1.08709 -1.09506 8.31389 150 150 120
-0.17388 -1.019 8.44375 232 236 192
-0.952033 -1.06231 8.36786 166 166 133
1.97098 -0.691661 8.66877 128 125 85
-0.947168 -0.900523 8.29702 164 164 134
-1.87573 -0.978981 9.2776 155 157 112
-0.549453 -0.796378 8.41513 229 232 194
1.98827 -0.588027 8.61641 120 104 68
1.95185 -0.490074 8.74273 167 154 122
1.92091 -0.424449 8.61364 165 153 122
1.57075 -0.348509 9.41332 196 195 160
1.92229 -0.311891 8.20064 168 134 104
-0.492177 -0.381742 10.1797 128 104 82
1.22358 0.563373 8.00189 127 86 65
0.71664 0.493787 7.68865 36 25 12
0.78644 0.528137 7.58681 40 24 8
1.20531 0.639713 7.96375 108 76 56
-0.187148 0.550141 7.35723 50 36 24
-1.49189 0.50182 8.1672 129 102 82
-0.186028 0.594952 7.57764 63 52 41
0.887107 0.700975 7.12975 230 220 207
-0.925471 0.399378 6.58964 42 36 14
-0.139566 0.678305 7.30085 54 27 19
-1.66492 0.624337 8.18511 210 164 131
-0.111367 0.690631 7.08612 148 116 108
0.489405 0.758585 7.10253 82 79 53
0.413496 0.823842 7.38393 89 62 41
-0.919284 0.715454 7.56177 98 73 67
-0.176146 0.78386 7.37719 130 104 97
-0.229628 0.807281 7.35034 64 36 28
0.462645 0.914553 7.37081 172 136 126
-1.47202 0.83659 8.07259 134 93 76
-1.3854 0.89996 8.27547 72 32 17
-1.49687 1.13548 9.49064 94 57 38
-0.27565 0.931111 7.26283 128 88 78
1.12453 1.29799 8.14915 209 192 185
-1.00664 0.918384 7.6073 114 70 54
1.0249 1.32447 8.11726 114 82 77
0.485596 1.15235 7.64105 163 134 133
1.09078 1.05395 6.5844 181 176 152
-0.33072 1.01376 7.20906 147 110 102
0.345606 1.20296 7.64782 76 40 36
-0.0635285 1.1397 7.51068 63 34 30
-0.212324 1.13462 7.48086 84 50 46
-0.670802 1.11443 7.65287 172 130 126
-1.43805 1.37815 9.32164 66 23 10
-1.52554 1.42057 9.53415 200 179 157
-1.51996 1.46462 9.44397 72 46 27
-1.44376 1.52369 9.44266 186 161 148
1.18941 1.23921 6.50752 203 197 177
-1.48858 1.52233 9.40107 197 184 162
-1.04768 1.32884 8.1673 82 41 29
-0.70573 1.35138 7.88062 142 105 102
0.298304 1.48229 7.72379 188 155 154
0.520117 1.59166 7.95535 60 32 28
1.0088 1.8563 8.55929 87 56 52
-0.822641 1.57876 8.22851 70 34 28
0.16386 1.74735 7.94481 96 60 58
-1.26825 2.08196 9.99308 102 68 48
-1.18146 1.98867 9.28112 86 36 18
-0.753089 1.78076 8.1873 90 48 38
0.437212 1.96885 8.15868 186 164 164
-1.24023 2.28843 9.86296 154 125 106
1.21469 1.83979 6.71091 234 220 210
1.22745 1.88654 6.70991 111 81 64
0.394534 2.34804 8.40339 170 144 140
-0.508584 2.70599 9.05282 161 132 130
-1.61893 -4.12505 11.1647 130 132 74
-1.18895 -3.37127 9.94926 188 188 144
-1.30911 -3.06719 9.61356 156 156 122
-2.60883 -2.58263 8.1539 114 114 82
-2.52856 -2.48779 7.92379 174 171 126
-2.60146 -2.41483 8.04785 168 162 140
-2.33348 -2.41373 8.26811 144 142 104
-0.933589 -2.55256 9.30227 177 180 146
-0.639155 -2.39499 9.20907 202 206 163
-2.15148 -2.21653 8.22306 214 212 174
-0.515528 -2.27128 9.26049 223 226 184
-0.574836 -2.13785 8.93295 184 190 150
-2.34646 -2.04037 7.92788 149 146 118
-0.684782 -2.08151 9.12901 162 172 130
0.182158 -1.76277 8.41698 84 92 48
-0.87687 -1.76707 8.70499 122 126 83
-0.572349 -1.62216 8.71471 171 176 142
-1.14913 -1.11733 8.39209 165 165 140
-0.62047 -0.9738 7.48547 182 180 134
-1.37705 -1.01019 8.17512 168 166 140
-0.885157 -0.872204 8.42791 172 172 143
-0.560894 -0.794861 8.3858 231 233 196
2.20415 -0.488224 9.15839 153 138 105
1.95259 -0.481807 8.40684 126 96 59
-1.23903 0.0630088 7.22438 120 124 115
1.35922 0.511703 8.04281 142 101 79
1.23082 0.566594 7.9807 136 96 74
1.17513 0.60767 8.0899 77 44 24
0.867667 0.688484 7.1037 227 215 204
-0.0681166 0.612827 7.16234 100 78 70
-0.23195 0.643406 7.11053 39 16 9
0.485435 0.802606 7.58097 44 29 15
-0.0982268 0.673405 7.09608 150 118 113
0.465094 0.797635 7.41916 180 160 145
0.504094 0.798563 7.2538 174 158 147
0.952106 0.794334 6.95329 230 227 212
0.309099 0.822893 7.39458 190 148 126
0.46408 0.853136 7.5059 104 72 50
-0.908742 0.714534 7.64619 122 96 86
-1.57582 0.975172 9.09837 174 136 117
-1.46639 0.875727 8.27219 96 58 42
1.03856 1.1599 7.88534 153 128 122
0.692815 0.924392 6.88772 75 74 52
0.695191 0.926908 6.82358 112 112 84
-1.21525 0.838761 7.70536 191 152 134
-1.16067 0.846018 7.69806 129 79 56
-1.24979 0.862376 7.79513 194 152 134
0.25928 1.01894 7.41664 72 40 30
1.07154 1.27562 8.07142 168 146 140
-0.970848 0.947676 7.74653 114 70 53
-1.52691 1.30125 9.56796 196 159 134
-1.5737 1.31873 9.60209 166 136 108
-0.293112 1.04374 7.30134 136 98 90
-1.40447 1.41291 9.53331 62 21 7
-0.906656 1.13539 7.84013 160 135 131
-1.51328 1.44826 9.61076 212 194 172
-0.966658 1.09084 7.4769 61 28 22
0.408986 1.39214 7.75413 62 37 32
-1.05337 1.41405 8.15481 158 118 104
0.531573 1.6867 8.17432 86 55 52
0.955842 1.9613 8.44559 140 112 110
-1.33749 1.96647 9.77362 199 182 155
0.420911 1.75481 7.91714 114 76 73
0.525071 2.08121 8.31451 85 54 53
-1.23658 2.31375 9.87319 171 148 128
-0.725717 1.92995 8.28711 79 46 40
-1.19963 2.37995 9.8239 78 46 32
1.24438 1.75409 6.40257 224 216 211
0.587153 2.46466 8.73064 91 52 50
-0.595402 2.36837 8.82057 162 139 139
-0.902434 2.76093 9.70646 157 118 107
-1.11606 -3.47415 10.3191 182 181 139
-1.15123 -2.98275 9.91036 158 158 124
-1.03616 -2.79204 9.46889 178 178 148
-2.50844 -2.55952 8.23813 164 160 117
-2.69635 -2.48235 8.22696 108 110 83
-2.19774 -2.25949 8.18969 164 165 122
-0.659283 -2.38171 9.18158 160 166 123
-2.44861 -2.21627 7.99345 160 156 133
-0.488385 -2.19682 9.26165 150 156 116
-1.9832 -1.89256 8.11446 160 158 138
-0.636008 -1.73574 8.76235 174 180 142
-0.466151 -1.66826 9.08783 162 168 135
-1.81319 -1.54207 8.14319 151 150 124
-1.34073 -1.51248 8.50606 151 150 120
-1.36918 -1.31902 8.36066 162 161 140
-0.361464 -1.18827 8.40026 168 168 118
0.481493 -1.01971 8.75808 94 103 82
-0.19614 -1.03331 8.40947 232 238 196
1.84973 -0.680559 8.89037 219 227 190
-0.898402 -0.879293 8.42643 152 150 122
1.97023 -0.590671 8.72037 90 79 36
-0.157937 -0.627255 7.90374 125 127 88
1.87882 -0.294762 8.13005 168 130 102
-0.290021 -0.370313 10.4022 42 25 10
-0.653483 -0.406107 8.33013 165 169 146
1.38712 0.533374 8.11941 138 98 75
0.661838 0.469258 7.68401 72 62 44
0.829934 0.567959 7.61624 121 117 92
-0.866612 0.322311 6.42254 124 132 96
0.832237 0.68523 6.98276 209 201 184
-0.100489 0.600644 7.12475 80 57 44
0.94448 0.751706 7.11163 180 180 158
-0.24975 0.680748 7.44021 32 22 16
0.371851 0.834234 7.5143 174 134 112
-0.955285 0.723512 7.68496 82 41 25
-1.00285 0.6802 7.38243 132 113 100
-1.08848 0.607772 6.92279 82 44 35
0.902913 0.817272 6.76362 175 172 152
-0.157005 0.823783 7.43227 125 106 100
-0.181215 0.804647 7.27213 81 39 29
-0.353481 0.781785 7.25285 116 100 86
0.448597 0.905041 7.34819 189 154 144
-1.16406 0.851529 7.72251 120 72 50
0.279533 1.02411 7.46841 101 67 56
1.04493 1.2715 8.01837 173 155 148
-0.96015 0.910032 7.52448 156 110 94
0.46472 1.14452 7.63262 138 100 100
-1.57648 1.31354 9.60411 179 153 124
0.376402 1.20429 7.69414 100 63 60
-0.926561 0.954303 6.92263 160 120 113
-0.462912 0.972549 6.86852 96 58 50
-1.52478 1.43352 9.61318 206 191 170
-1.42083 1.40725 9.43859 56 14 2
-0.8825 1.1579 7.77547 61 29 22
1.02574 1.57483 8.37938 116 80 76
-1.50936 1.49568 9.54285 138 120 99
0.066684 1.34192 7.73478 98 60 52
0.361844 1.38169 7.69336 70 47 46
-1.43622 1.58379 9.62749 202 189 168
-0.801658 1.4031 8.03202 37 16 12
0.0903541 1.49211 7.69079 104 69 66
-1.38089 1.85201 9.90843 142 114 91
-1.32566 1.98979 9.91469 194 182 153
-1.1565 2.02471 9.39977 86 36 18
0.708163 2.1227 8.58177 114 75 68
0.480546 2.05488 8.40432 117 76 74
0.42726 2.00093 8.18617 160 140 141
0.623084 2.14977 8.52738 92 57 56
0.416043 2.09681 8.32026 112 74 74
-0.719524 1.96257 8.45474 157 131 132
-0.700083 1.96009 8.36361 79 46 41
-1.17589 2.42664 9.97294 79 46 33
1.2783 1.85509 6.61505 122 88 69
-2.33872 -2.41999 8.28622 163 160 124
-2.31384 -2.34803 8.17882 206 204 166
-2.52901 -2.18025 7.84297 130 125 92
-1.98345 -1.9105 8.18903 148 146 125
-0.56599 -1.6241 8.74444 180 184 152
-1.34943 -1.51251 8.46212 170 170 135
-0.249335 -1.03907 8.27971 230 237 194
2.11011 -0.649921 8.85828 194 196 160
-0.592057 -0.819127 8.35856 229 236 196
2.06 -0.557593 8.92281 86 77 36
1.98189 -0.562103 8.6971 100 80 46
1.98162 -0.5355 8.52747 187 157 126
2.03305 -0.455731 8.40907 208 184 157
2.01178 -0.439339 8.99519 158 162 125
1.84844 -0.399536 8.45248 227 230 190
-0.574321 -0.363153 9.45952 40 20 7
0.721806 0.49002 7.79139 98 90 72
1.23914 0.578161 8.03808 113 72 50
1.3939 0.690303 7.89624 188 143 124
0.841496 0.715305 6.94174 200 199 178
-0.592403 0.50456 6.30832 36 21 14
-0.0700796 0.699874 7.21712 130 96 82
0.56593 0.818776 7.37857 177 156 150
-0.278261 0.658571 6.92538 140 100 90
-0.933705 0.709541 7.64311 98 68 56
-1.06546 0.67309 7.41594 88 46 30
-0.306082 0.781495 7.21324 65 32 25
-1.54404 0.834118 8.12458 128 91 75
0.887302 1.09408 7.65563 136 108 100
-0.275162 0.834714 7.06215 233 205 203
-0.327252 0.972721 7.23115 200 168 156
-1.56944 1.24473 9.33771 160 122 98
0.989863 1.34249 8.00914 145 118 114
-0.945628 1.11037 7.73739 144 116 112
-0.76992 1.0548 7.37227 145 104 98
-0.890733 1.15504 7.72082 64 32 24
-1.22082 1.30228 8.31356 78 34 20
-1.45273 1.5662 9.55203 204 192 170
-0.794732 1.40364 8.01346 36 16 12
0.500489 1.56639 7.87459 56 24 16
-0.676945 1.67066 8.40894 59 28 24
0.846503 2.10483 8.59538 98 60 58
0.412955 1.98174 8.15862 128 104 104
0.49495 2.03606 8.22781 98 60 60
1.22808 1.83219 6.69467 223 216 213
1.13411 1.7783 6.40551 122 88 67
1.18073 1.87099 6.66053 214 194 183
-0.965513 -2.89105 9.87273 139 141 109
-2.34771 -2.43104 8.31337 170 167 132
-2.29726 -2.38256 8.36137 172 170 136
-2.18369 -2.2993 8.36449 184 184 139
-2.53416 -2.15496 7.73148 120 115 84
-2.40788 -2.15746 8.15348 105 106 78
-1.49766 -1.66498 8.52817 150 151 121
-1.83248 -1.53395 8.0785 146 144 119
2.11307 -0.659289 8.85304 169 172 136
1.84749 -0.397079 8.48221 222 232 191
0.567085 0.447936 7.51314 70 59 42
0.240783 0.736254 7.43352 130 84 67
0.40753 0.768301 7.35017 118 97 82
0.5111 0.797469 7.30013 134 117 106
0.389295 0.81787 7.37305 120 85 62
0.717232 0.917008 7.55137 201 184 184
0.918132 1.64036 8.16182 186 162 157
-1.43185 1.68212 9.60265 144 120 100
0.912238 1.72665 8.28687 102 72 70
-1.38286 1.85724 9.91406 162 139 116
0.313781 1.77879 7.91633 96 61 56
-1.25833 0.955391 5.66043 120 84 74
-1.36244 2.11066 9.70687 190 174 148
0.427105 1.97915 8.18835 118 92 90
-0.669103 1.99054 8.40105 86 42 36
1.62849 1.98626 6.99687 162 142 132
1.30563 1.74986 6.40231 183 135 104
-2.60858 -2.32187 7.75887 180 170 150
0.548033 -2.22978 8.65938 180 185 142
0.147036 -1.31515 7.98453 140 144 108
-0.509258 -0.84859 8.71716 224 236 194
1.28974 -0.344206 9.78471 206 209 178
1.26675 0.490231 8.06307 188 148 126
0.920709 0.496516 7.63242 109 70 55
0.198629 0.710787 7.66202 31 22 12
0.20293 0.657603 7.10704 50 31 19
-0.240063 0.63416 6.9816 174 136 128
0.409457 0.821523 7.41851 126 89 66
1.0988 1.16447 8.16518 142 107 103
-0.152098 0.879185 7.36046 222 192 186
-1.39872 0.907306 8.29787 74 37 21
-0.625092 1.13459 7.82507 130 84 77
-1.31437 1.24077 8.36316 60 26 14
-0.780346 1.38812 7.98347 51 24 21
-1.41642 1.77823 9.71695 146 122 98
-0.778605 1.58385 8.03513 50 24 20
-0.831714 1.84863 8.1331 101 66 60
1.15497 1.81215 6.69656 156 124 109
1.25071 1.82128 6.56716 196 180 172
-1.19204 -3.36736 9.93314 154 154 112
2.87759 -2.25107 6.95298 128 127 104
-2.66505 -2.65613 8.18254 94 90 66
-2.705 -2.63169 8.13717 153 152 131
-2.04068 -2.14073 8.27317 172 174 132
-1.34383 -1.54157 8.541 200 200 162
-1.3577 -1.30668 8.36012 138 136 116
-1.07881 -1.2452 8.39429 174 176 136
2.21202 -0.980655 8.61556 130 130 93
-1.60829 -0.414299 9.66971 206 177 137
1.10048 0.608796 8.01538 50 26 12
1.12495 0.636646 7.86609 200 179 168
1.15079 0.66675 7.86359 223 210 201
1.21681 0.690367 7.78403 160 130 102
1.14093 0.693449 7.76739 86 62 34
-1.48715 0.5105 8.17586 114 88 72
0.566929 0.803487 7.31328 98 88 72
0.59776 0.839242 7.4198 168 148 142
-1.36411 0.739125 7.86535 148 106 84
-1.50856 0.842404 8.19907 136 100 86
0.756249 1.1289 7.78953 94 60 56
1.08316 1.0451 6.59539 200 196 176
-0.88095 1.13896 7.80694 70 29 24
0.872762 1.13585 6.56373 102 103 85
-1.52711 1.46186 9.41208 58 36 20
-1.44076 1.53871 9.57258 111 88 72
0.945519 1.27596 6.40557 110 108 90
-0.897912 1.39227 7.97083 50 21 14
-1.31489 2.00593 9.79246 84 50 31
1.29215 1.76604 6.38582 112 72 51
-1.02245 2.34368 9.29811 78 34 22
-1.06012 2.32934 9.25036 150 116 106
1.73539 -3.3852 8.74962 123 128 89
-3.07307 -3.02483 8.0716 154 152 104
-1.37686 -3.24295 9.76065 138 138 104
2.96499 -2.3986 6.87364 116 118 92
-1.07699 -3.18545 9.80727 177 178 138
2.74794 -2.23764 7.11274 120 121 80
-1.96929 -1.89385 8.16721 126 127 108
-1.3597 -1.30781 8.34946 139 138 117
-0.344226 -0.387391 10.1856 44 37 23
1.83629 -0.126228 8.08783 188 155 140
1.50841 0.279233 8.68152 82 55 32
1.2411 0.567334 8.01153 122 82 56
1.11856 0.632342 7.87362 185 160 146
1.16618 0.6945 7.96574 95 70 49
1.17668 0.67887 7.71922 152 124 92
-0.11687 0.584394 7.27992 74 40 22
-0.0712969 0.593887 7.24987 52 31 22
1.06732 1.16805 8.08148 76 49 42
-1.15598 0.855458 7.75673 118 70 49
0.716852 1.13593 7.76453 90 56 53
-0.929874 0.942699 7.67586 121 83 68
-0.965534 0.980849 7.76461 52 16 8
-1.48399 1.46703 9.46963 131 102 84
-1.12744 2.00076 9.14551 144 110 99
0.511748 2.07656 8.3116 68 38 36
-1.18285 2.35824 9.9409 121 82 68
0.426906 2.45025 8.57848 70 38 34
1.76055 -3.39789 8.79624 128 134 92
-3.07427 -3.02164 8.06276 150 150 102
-2.60584 -2.42703 8.10081 136 136 112
-2.14046 -2.23524 8.32649 171 171 132
-1.99605 -2.13742 8.35049 141 144 100
-1.9759 -1.88731 8.10928 128 128 110
-1.93242 -0.769359 9.12283 194 184 151
-0.368727 -0.382879 10.0827 28 20 10
1.32711 -0.0625379 8.56758 184 186 152
1.50743 0.277181 8.66933 76 48 23
1.38419 0.516455 8.09837 128 84 64
1.24531 0.522298 8.04226 178 134 112
1.16455 0.663175 7.89636 206 190 182
1.15442 0.676133 7.76091 112 84 50
0.473128 0.802305 7.54229 38 24 10
-0.158805 0.663313 7.18203 152 114 105
-0.172876 0.736543 7.1242 114 74 66
-1.16261 0.840377 7.68489 106 56 36
0.437171 1.04236 7.54582 86 54 47
-0.90744 1.0019 7.69486 49 17 12
-0.888477 1.12743 7.78292 83 44 36
-0.94869 1.14609 7.79365 56 22 14
0.522313 1.39169 7.85295 89 58 56
-1.236 2.32755 9.67273 74 43 31
1.17074 1.84092 6.74238 146 118 106
0.816244 2.45556 8.84422 111 69 66
-1.11336 2.30079 9.33389 64 19 6
-1.08504 2.33786 9.34505 48 12 2
-2.66221 -2.6921 8.22385 164 160 115
-2.81924 -2.63223 8.1127 86 86 58
2.72988 -2.2026 7.14792 206 205 166
-2.39446 -2.3267 8.17598 112 112 92
-2.00008 -2.13913 8.35488 154 156 110
-1.02441 -0.988226 8.34682 136 135 108
1.90658 -0.682874 8.9632 198 205 168
1.18419 0.668947 8.10173 144 121 108
1.15467 0.691986 7.7867 98 71 42
0.506874 1.14093 7.60875 72 47 45
0.47165 1.37504 7.8023 117 83 82
-1.18373 2.35141 9.90087 126 87 74
-1.18102 2.35595 9.75231 56 20 6
1.21562 1.84359 6.67718 208 198 191
-1.08646 2.34928 9.44944 59 16 5
2.79189 -2.24491 7.16994 148 148 108
-2.61086 -2.58091 8.16444 85 86 58
-2.60003 -2.42785 8.09738 140 138 114
-2.26486 -2.30935 8.2483 98 99 64
1.56167 0.336494 8.80298 106 79 51
1.46591 0.697574 8.02435 172 126 107
-0.18395 0.654179 7.09916 136 102 92
0.435945 0.79557 7.39768 80 61 46
1.32313 1.78293 6.42761 114 72 50
-1.10642 2.2939 9.29961 70 26 15
-1.06716 2.31985 9.29886 110 72 60
-2.90456 -2.80095 8.11556 92 91 72
-2.17357 -2.27401 8.3059 108 112 76
1.28024 0.522609 8.13614 158 113 86
1.02632 0.677563 7.80041 130 108 88
-0.896498 0.318064 6.32172 119 122 88
1.03216 0.926274 6.75779 92 92 64
-0.933481 1.17946 7.97575 54 22 12
-1.10519 2.31833 9.35671 55 13 2
0.490843 4.95152 15.1412 68 30 16
2.03618 -0.598762 8.62548 154 135 100
2.00921 -0.548217 8.83406 64 54 22
2.02353 -0.456426 8.42057 174 145 114
1.45628 -0.0633113 8.76998 195 200 163
1.28037 0.435549 8.21993 60 34 17
1.37107 0.541309 8.07628 127 88 62
1.47988 0.696202 8.08124 162 114 94
1.11425 0.73825 7.67647 180 154 136
-0.130712 0.692315 7.25503 122 87 78
-1.29579 0.800042 7.54589 169 126 106
0.582931 1.17784 7.73976 40 20 14
-1.16603 2.42213 9.90701 56 24 14
-1.45476 -1.58497 8.42272 142 140 110
1.83449 -0.446592 8.6869 85 89 53
1.04617 0.593072 7.80719 157 130 116
0.731026 1.14624 7.86587 114 82 80
-1.36673 1.93686 9.72336 174 158 132
1.26222 1.73311 6.36736 164 122 93
-2.02045 -2.11505 8.19737 144 146 104
-1.14745 -1.10801 8.3598 123 124 98
1.2331 0.551554 8.06684 154 109 86
1.18632 1.2144 6.51894 144 139 123
-2.67539 -2.65263 8.183 98 96 78
-2.17095 -2.24854 8.30724 117 118 90
-2.16696 -1.89765 8.12281 128 124 96
1.99123 -0.631564 8.65322 185 185 146
-0.835072 0.788786 5.91558 82 68 55
1.99376 3.08379 12.6674 87 58 56
1.08218 0.613955 7.91652 114 88 72
-0.125342 0.794437 7.29568 54 21 12
1.16969 1.19925 6.49906 158 154 136
-2.49488 -2.23775 8.15737 88 84 54
0.511281 0.80666 7.41289 47 39 18
-2.00893 -2.13342 8.36004 102 104 68
1.22657 0.580382 8.00587 122 81 58
1.23092 0.686724 8.02119 127 105 96
1.06277 0.673331 7.69714 72 50 31
-1.05763 -2.77142 9.37807 135 138 106
1.44869 0.155775 8.29498 149 131 108
1.11332 0.668182 8.13062 88 74 54
0.362918 0.833729 7.49482 149 106 82
1.87411 -0.493237 8.58373 126 112 84
-1.31239 -1.52728 8.56722 155 156 115
3.12354 -1.8142 20.7816 112 115 90
0.784459 -0.320743 13.8594 115 120 106
-1.20393 -0.126165 9.54355 170 158 132
1.63879 0.48908 8.89522 116 78 61
1.37779 0.484067 8.05604 174 128 104
-1.20359 -0.137323 9.53975 102 90 68
-0.403591 0.118239 5.39265 33 26 12
1.23015 1.86023 6.71904 194 178 169
2.12163 -0.598051 8.72384 154 144 110
-1.57772 -1.52952 8.32483 118 117 96
0.404512 -0.325978 8.2517 72 54 42
1.11694 0.592277 8.01891 64 34 22
0.390825 -0.314952 8.21573 52 34 24
0.409159 1.21367 7.73452 49 20 17
1.83488 -0.408655 8.54358 186 191 154
-0.0707584 0.485669 7.05412 48 35 23
1.97128 -0.475733 8.45028 126 91 58
2.72962 -2.15054 7.10136 75 76 44
-0.161652 0.790147 7.21367 58 22 14
1.50097 -1.70985 7.22163 170 175 128
2.58722 -2.14815 7.25048 181 185 136
2.82767 -2.27761 7.15651 180 184 138
2.63111 -2.15077 7.23492 191 190 146
2.58242 -2.15102 7.26212 185 187 142
0.774748 0.567183 7.65796 34 26 16
0.296981 1.85281 18.3557 100 92 78
0.0616192 0.87838 6.85789 70 30 18
0.444612 -0.334195 8.35867 127 119 100
-1.49018 0.749879 9.22437 184 136 105
0.36557 1.18437 8.78141 170 133 128
1.51226 1.06889 14.3191 70 56 46
-0.578102 -1.62469 8.7115 145 152 118
-2.99027 -0.93254 9.65338 130 110 61
-0.525398 -0.0235711 6.78887 53 55 32
-0.677101 1.11495 7.62322 174 134 124
-2.98965 -0.936776 9.65748 126 104 56
-2.95877 -0.931749 9.6267 140 118 70
-2.8959 -2.7762 8.11609 90 89 69
-2.89388 -2.69285 8.09112 83 78 54
-2.17997 -1.98849 8.13107 124 121 99
1.2228 0.613182 8.05047 138 100 73
1.23412 0.648851 8.07893 131 99 79
-1.03674 0.567555 6.31093 167 134 110
0.541926 0.804737 7.50468 59 46 24
-1.05876 0.510704 6.29283 76 36 22
-1.02925 0.570474 6.33863 158 130 108
-1.0409 0.571102 6.31879 170 135 113
-1.0824 0.503291 6.31741 74 35 22
-1.00964 -3.03969 9.65989 146 149 106
-1.06158 -2.72754 9.26352 144 150 115
-2.17552 -2.26954 8.26561 121 124 82
-1.99592 -2.14649 8.37339 150 150 106
-1.31427 -1.52505 8.575 162 162 122
-1.02807 -1.24857 8.54608 167 170 128
0.559884 -1.17297 8.85667 136 143 102
2.04782 -0.592204 8.61346 156 141 106
-0.312931 -0.455277 7.40213 62 69 44
0.502883 -0.282073 8.78205 102 94 84
-0.942946 0.216592 6.56324 140 136 111
-0.819403 0.311571 6.39109 117 128 90
1.17065 0.675513 7.69201 162 132 104
-0.960859 0.406275 6.50389 42 38 17
1.21122 0.707354 7.90442 88 64 28
-0.142354 0.569644 7.4813 28 12 4
-0.064937 0.6129 7.17041 128 108 102
-0.177004 0.69603 7.13103 155 120 112
0.633389 0.82828 7.47052 144 130 119
-0.198667 0.734265 7.06615 112 76 66
-1.05787 0.599315 6.19506 178 154 128
1.05478 0.925037 6.79427 130 130 106
-1.25747 0.862841 7.69587 150 105 85
0.454765 1.0373 7.55418 58 30 25
1.18097 1.30644 8.24185 192 180 169
0.483667 1.17182 7.64997 135 112 110
0.961609 1.32525 8.04578 70 42 38
1.1683 1.20442 6.50961 130 125 98
1.0313 1.52438 8.30858 150 126 120
0.917292 1.82064 8.39894 71 40 36
0.912622 2.0562 8.58478 136 102 98
0.892242 2.1037 8.61007 61 32 29
1.2642 1.79734 6.42934 93 63 43
0.0390032 2.09042 8.09582 151 112 112
0.856462 2.416 8.82249 152 116 112
0.574678 2.78028 8.96937 81 42 40
0.354913 2.681 8.66059 76 46 42
0.385509 2.70641 8.68832 142 117 115
0.207015 2.94367 8.78142 138 106 106
-0.0978732 2.99568 8.9056 101 58 48
0.262621 3.03811 8.8934 151 118 116
-0.0692487 3.02934 8.79664 114 76 66
-2.67074 -2.6584 8.19608 109 106 84
0.361312 -1.26459 5.69707 138 132 108
-0.737191 -1.4895 8.62646 150 154 112
-2.73205 -1.05105 9.34836 85 74 39
1.93855 -0.58759 8.52392 126 117 80
1.82046 -0.449997 8.65357 159 160 124
0.730506 0.430137 8.87103 36 32 18
1.23728 0.525079 8.02372 174 130 112
1.05588 0.585849 7.90476 70 48 29
1.14741 0.601457 8.00559 78 50 32
-0.0729972 0.607053 7.14322 92 76 70
-0.177123 0.676996 7.19609 44 18 8
-0.959491 0.711372 7.63613 72 31 15
0.348401 0.82315 7.43729 150 113 90
-1.43221 0.751796 8.22909 116 74 50
-1.17989 0.513668 5.85139 82 46 32
-1.04786 0.596106 6.22751 164 137 114
-0.20117 0.81074 7.29047 122 102 96
-0.180911 0.835265 7.44775 62 36 25
1.03872 0.899598 6.81344 198 198 180
1.05994 0.93594 6.76526 182 180 162
-1.59607 0.925061 8.70948 118 78 56
-1.06477 0.715695 6.20115 180 146 120
1.10581 1.08114 6.57984 171 168 148
-0.917755 1.12118 7.80075 144 116 110
-0.89335 1.15793 7.89146 141 118 112
0.906886 1.14806 6.62233 97 99 80
-0.85468 0.912755 5.94847 112 114 96
0.504307 1.37038 7.78816 72 46 40
-1.05671 1.41112 8.13171 150 106 90
0.915908 1.81423 8.39967 92 59 56
0.932612 2.07285 8.64057 130 96 93
0.423174 2.0433 8.19951 138 118 118
0.482851 2.07425 8.27814 96 72 72
1.24703 1.75807 6.39931 208 194 184
1.28477 1.83361 6.60643 154 138 124
-0.138855 2.95507 8.85585 152 104 92
0.0849798 2.99561 8.78122 148 124 120
0.282693 3.0701 8.93715 132 100 98
-1.30846 -3.45392 9.91736 152 150 112
-1.04609 -2.97711 9.45993 128 134 92
2.79209 -2.25125 7.17991 115 115 74
2.77647 -2.05661 7.38606 192 188 153
-0.843048 -1.1038 8.66624 178 181 136
0.753707 -0.31677 9.10634 155 146 122
0.64435 0.401061 8.61635 30 23 10
-0.805139 0.312291 6.45165 102 114 74
1.44782 0.627312 8.10877 144 92 68
1.19829 0.60801 8.02194 150 114 88
-0.0832963 0.480817 7.53004 88 78 64
-0.106923 0.567317 7.22144 124 100 85
-0.943243 0.715314 7.70635 71 28 13
-1.21552 0.50054 5.77687 80 46 32
-0.20646 0.804234 7.26626 125 106 98
-0.0880876 0.843516 7.51358 65 34 25
1.02742 0.913585 6.74414 147 146 124
-1.07986 0.70341 6.15488 188 149 124
-0.956676 0.984895 7.80658 54 18 8
0.468323 1.3691 7.77905 116 88 86
0.950067 1.52555 8.22159 98 66 60
-0.801092 1.40389 8.08395 35 12 9
0.927679 1.76356 8.37787 92 62 59
0.588287 1.86694 8.34552 107 77 76
0.392099 1.80163 8.00132 72 40 37
0.893572 2.1099 8.62117 57 29 26
1.20826 1.73752 6.33978 207 195 186
1.21287 1.83824 6.71185 198 179 164
1.27948 1.8139 6.46964 96 68 46
-1.00317 2.39808 9.53019 114 78 67
0.78926 2.42081 8.72582 70 39 34
0.573804 2.71206 8.81988 94 53 51
-0.0455341 2.77914 8.31686 120 88 80
-1.12596 -3.17516 9.67925 166 170 129
-2.46532 -1.14146 9.39762 149 146 101
1.84623 -0.675983 8.84302 199 206 165
-0.677581 0.309238 6.43216 140 146 123
1.0147 0.569741 7.97654 32 18 6
1.0409 0.65856 7.55123 107 83 54
-0.72209 0.471896 6.30857 68 67 48
-0.690712 0.534942 6.30292 67 46 40
-1.0425 0.59823 6.24347 170 145 120
-1.07595 0.705709 6.15514 184 146 122
-0.947444 0.962541 7.69789 164 140 132
-1.13211 0.812751 5.97875 136 106 90
0.920328 1.15725 6.64679 102 104 84
0.662035 1.34545 7.86609 83 55 51
0.459608 1.3627 7.75026 138 110 108
0.620538 1.49204 7.86665 98 66 62
-1.20302 0.978405 5.77289 124 103 89
0.422907 1.56364 7.90556 86 57 54
0.507355 1.8098 8.08712 60 30 28
0.33915 1.93646 8.02374 75 46 42
0.37525 2.0618 8.19601 64 34 31
1.16335 1.83583 6.55141 106 78 62
-1.09367 2.27004 9.07443 156 124 114
0.534032 2.69615 8.76116 94 56 53
0.370298 2.68448 8.63413 134 107 104
-0.0876449 2.85404 8.6823 142 107 104
0.139183 2.89783 8.61537 138 106 104
0.274382 3.04846 8.88205 132 100 98
2.72077 -2.04957 7.31556 182 177 144
-2.23654 -2.16359 8.21696 126 126 104
0.0366013 -0.31346 7.06977 170 170 148
1.24242 0.514639 8.04148 156 114 91
-1.0261 0.41769 6.31649 100 88 78
0.381783 0.782723 7.38479 36 24 13
-1.05102 0.603548 6.2559 191 156 136
1.16734 1.17914 8.24466 75 54 46
0.434602 1.04916 7.59533 48 20 13
0.676245 1.13403 7.71915 86 57 50
1.14655 1.07136 6.69424 179 176 157
0.474534 1.15655 7.66296 89 65 62
0.663679 1.32645 7.82481 98 68 64
0.634771 1.50808 7.91789 94 62 60
-1.14829 1.96826 9.05856 130 96 87
0.36037 2.04554 8.16775 76 43 40
-1.29139 2.21157 9.41253 122 100 82
0.39448 2.69106 8.7171 114 86 83
0.296146 2.7046 8.7374 140 104 104
0.0181554 2.81031 8.37587 132 102 100
0.273845 3.02107 8.8571 132 99 96
2.61921 -2.16167 7.19924 200 202 157
-0.950947 -2.54416 9.27007 141 148 112
-2.47183 -1.12894 9.30032 140 136 92
1.82809 -0.682104 8.85234 198 206 161
1.5625 -0.590032 8.76676 199 206 165
1.84421 -0.473073 8.49897 96 78 48
1.76398 -0.505631 9.53095 195 198 159
-0.856695 0.126398 6.91797 54 55 35
1.22169 0.499741 7.98 158 118 95
-1.04348 0.456057 6.31613 25 18 10
-0.191608 0.798855 7.21018 68 32 24
-1.07904 0.605754 6.1888 198 161 142
-1.38593 0.907728 8.26148 52 19 8
1.15883 1.07934 6.71386 155 152 132
-1.45778 1.37299 9.30853 60 22 8
-1.54452 1.42218 9.52658 187 176 152
0.550712 1.82082 8.15736 48 20 16
-1.163 1.9506 9.04227 100 60 51
0.524009 2.74918 8.8454 84 46 44
-0.714239 2.63089 8.18367 80 36 29
-0.263395 2.54521 7.72268 95 60 51
2.1257 -0.982886 8.63638 88 81 36
-0.584452 -0.828404 8.37431 204 211 164
1.90467 -0.29173 8.19244 154 116 91
-0.909639 0.114653 6.77939 50 51 35
1.38129 0.546349 8.10333 130 94 70
0.206212 0.820933 7.30535 185 148 128
0.463766 0.874601 7.64201 122 83 61
-1.61018 1.10422 9.17071 106 72 47
0.680116 1.14773 7.77936 70 42 36
0.393213 1.17312 7.64731 68 35 30
0.615642 1.32428 7.78425 94 66 62
0.597699 2.79795 9.04959 110 70 70
-0.844403 2.23519 6.90168 126 86 76
-0.700107 -0.564002 9.52033 206 209 167
-1.10966 0.587512 6.10968 192 154 134
-1.07405 0.856253 7.00865 100 61 50
0.658928 1.32949 7.87218 116 86 83
0.540015 1.77724 8.1039 125 90 86
0.793006 2.04405 8.45331 90 58 56
1.18413 1.69114 6.37269 206 198 190
-0.779375 2.51249 7.91939 76 34 29
-0.895663 -2.8196 9.45415 143 149 108
2.41077 -2.08738 7.36211 119 120 80
-0.843173 -1.10096 8.65704 148 152 110
-1.45114 1.52378 9.52705 90 62 45
0.943666 2.00229 8.47452 118 90 84
-0.134493 2.93902 8.82369 144 97 84
2.4971 -2.11406 7.15744 146 146 104
-0.685648 0.306466 6.38802 136 141 119
-0.0383529 0.680802 7.184 62 42 40
-1.10968 1.1587 5.66059 136 144 128
1.18765 1.80894 6.75286 159 142 132
0.113385 2.08556 8.11775 147 104 102
0.409578 2.31689 8.38227 151 118 118
-0.644731 2.28418 8.63382 145 108 104
0.103268 2.95601 8.78757 118 84 76
0.513888 1.36714 7.79842 79 52 49
-1.11868 1.15706 5.64452 132 135 119
0.379154 2.66561 8.62437 151 126 122
0.279631 3.05963 8.9155 129 96 94
2.02989 -0.671071 8.73861 146 148 105
0.431022 0.789801 7.48701 34 20 11
1.18684 1.84282 6.7556 114 89 74
1.28246 1.80319 6.47254 95 66 48
-3.218 1.48476 5.69715 98 91 67
-2.94862 -2.91977 8.1697 106 110 70
-0.90207 0.397683 6.37842 96 102 66
-0.0199277 0.665757 7.19847 24 12 8
0.537955 0.787304 7.22355 99 88 71
1.51022 -0.438832 9.15007 158 162 121
-0.643674 0.541315 6.43565 26 12 7
0.423088 1.18822 7.70544 74 46 40
1.28456 1.78113 6.36811 118 84 63
0.259195 2.69358 8.68249 135 96 98
1.22962 1.71388 6.43972 194 184 174
0.468806 -0.322646 8.60396 100 91 78
0.388024 1.39521 7.80639 75 48 44
-0.183307 0.838622 7.40228 84 56 46
-0.780828 0.993892 5.96267 59 28 25
-0.0603711 0.655855 7.25874 100 68 58
0.966691 0.754043 7.14682 190 176 161
0.390899 2.32553 8.28699 108 77 75
-0.668873 0.870331 6.12701 114 78 72
0.940721 0.74866 7.10229 182 171 156
0.507388 -0.351264 8.11668 183 182 150
-2.80551 -2.63271 8.14287 78 80 52
-1.52524 1.6488 9.08794 141 116 93
-1.2586 2.24989 9.53203 136 102 90
0.316631 2.9631 8.76892 105 64 56
0.86915 0.900758 10.4424 64 43 34
-2.42159 -2.18999 8.15899 82 81 55
-1.19404 2.38321 9.87611 124 88 73
0.471779 1.11287 8.08544 65 30 25
-0.875961 0.95897 7.7365 111 60 42
-0.861443 1.42131 8.26093 32 11 8
-2.64187 -2.59434 8.14078 122 120 98
0.546352 0.783572 7.22676 103 96 76
-0.690971 -1.82673 8.80277 124 138 94
0.564726 1.37064 9.01705 53 28 24
-0.690645 -1.82571 8.79448 124 137 94
-2.92838 -2.75035 8.09456 76 74 52
0.622322 0.821086 8.126 95 74 61
0.440547 0.798027 7.54329 51 28 14
-0.341661 -1.68617 8.83651 152 153 108
1.15305 -1.11056 7.70356 96 100 81
0.902477 -0.876658 7.82435 80 86 71
-0.315514 -0.479919 7.45136 144 147 118
-0.403207 -0.356105 7.20323 132 136 113
1.02377 -0.305044 9.7123 166 159 124
1.64254 0.239545 8.84947 152 127 94
0.179875 0.131519 8.7199 90 88 80
0.0711288 0.162667 8.72539 126 126 114
1.3574 0.344027 8.36875 44 24 10
1.38878 0.632705 7.97256 113 71 50
-0.072542 0.490825 7.5868 80 62 48
1.43525 0.682027 8.08249 176 145 130
1.37878 0.718937 7.98465 98 65 49
0.997827 0.714002 7.49646 116 96 78
-0.0293248 0.694164 7.23779 26 6 4
-1.02091 0.601841 6.34603 132 111 80
0.675226 0.889308 7.32063 158 140 133
1.09121 0.935189 6.87845 88 88 67
-0.153051 0.961719 7.57146 71 34 20
0.485411 1.14472 7.58443 80 58 55
1.14598 1.09245 6.6576 156 155 138
0.703866 1.32842 7.85563 60 32 28
-0.83731 0.929241 6.04705 84 88 68
1.01761 1.51519 8.28232 119 94 89
0.312416 1.48949 7.7641 137 108 104
0.451143 1.54749 7.84495 128 106 105
0.449152 1.58231 7.8757 113 90 88
0.969127 1.74683 8.2725 32 9 5
-0.133201 1.70977 7.89503 128 101 96
0.993895 2.06351 8.67164 68 34 28
0.873362 2.09212 8.54499 50 20 15
0.398289 1.9563 8.13571 46 20 16
0.759183 2.72042 9.03295 92 60 58
-0.0883061 2.51296 8.45273 122 89 82
-0.0533368 2.51197 8.46565 82 34 27
-0.575928 2.62198 8.81898 129 92 86
-3.26416 1.58931 5.8993 114 104 90
0.120671 2.96634 8.80027 116 80 76
-3.44245 -3.34465 8.20177 100 94 50
-2.83827 -2.85636 8.30692 158 158 112
1.04297 -1.00892 7.74793 84 90 72
0.959871 -0.881528 8.04101 100 104 90
-0.53311 -0.799285 8.44737 152 155 110
0.0607809 0.170586 8.72518 118 118 108
-0.695859 0.311634 6.3949 102 112 85
-0.844915 0.342735 6.55555 92 96 58
0.644407 0.883432 7.2343 163 143 138
0.989119 1.29961 7.99521 42 18 14
-0.132435 1.71302 7.90076 113 84 78
0.501495 1.81515 8.11592 38 20 18
0.0697582 2.12104 8.20599 113 75 72
0.868937 2.41177 8.86 124 90 86
-0.0760533 2.59883 8.57333 108 78 72
-0.84345 2.7062 8.87961 110 94 73
-0.0367494 2.91118 8.75259 70 30 26
-0.833808 -0.142896 7.03849 92 88 64
-0.675579 0.318039 6.47237 114 124 98
1.19483 0.606616 7.99652 122 84 62
0.670493 0.905138 7.35604 146 128 122
0.530083 1.1538 7.6875 58 36 33
1.29975 1.82723 6.51812 65 37 14
0.847487 2.36985 8.7596 122 86 82
-0.101301 2.18306 8.23427 126 104 103
0.782946 2.74513 9.09254 92 60 58
0.0273565 2.65654 8.93214 99 63 58
-0.0525082 2.89307 8.80414 116 78 72
-1.29626 -3.46795 9.93991 142 144 97
2.44775 -2.06738 6.69366 114 116 72
1.33657 0.315462 7.9262 86 42 15
1.28328 0.451023 8.16291 40 19 8
-0.851596 0.3322 6.51828 82 87 48
1.16412 0.66058 7.91965 171 147 136
1.32713 0.71542 7.85422 106 74 58
1.04126 0.757476 7.39696 144 120 104
-0.072202 0.672394 7.15401 101 71 67
-0.683494 0.677482 6.47214 148 110 88
-0.123 0.904273 7.49315 173 144 142
0.692137 1.33111 7.85243 64 36 32
0.451007 1.56169 7.88553 106 82 81
-0.13549 1.72146 7.88649 116 90 84
-0.113196 2.21511 8.23976 100 71 68
-0.148766 2.95228 8.86349 120 74 58
1.86973 -0.535789 8.28739 144 108 77
-0.187444 -0.543403 7.48737 87 86 56
1.85489 -0.473886 8.52984 66 50 20
0.0683694 0.196848 8.86189 118 118 109
0.169995 0.224141 8.86243 79 77 65
1.24881 0.432767 8.09081 38 19 8
0.718223 0.487987 7.79565 56 53 38
-0.0228544 0.670435 7.20156 15 6 4
-0.763909 0.542796 6.33998 101 110 83
0.96852 0.819357 6.92755 44 46 24
0.277116 0.819978 7.34714 146 107 88
-0.110223 0.907911 7.54834 174 144 141
-0.114817 2.56005 8.54699 88 56 48
-0.812744 2.68298 8.89157 62 46 32
1.96345 -0.595917 8.72844 52 34 8
-0.87601 -0.1069 6.96923 38 28 13
0.0198644 0.199291 8.68145 122 122 115
0.125639 0.213124 8.63784 40 38 28
1.51655 0.363607 7.94136 113 115 83
1.30993 0.431747 8.24291 44 26 15
-0.0953738 0.491165 7.51419 65 46 31
0.44753 0.895203 7.30181 132 100 88
-0.328379 0.963374 7.47815 85 38 15
-0.152987 1.51249 7.77808 72 44 38
-0.141769 1.72546 7.89402 102 77 72
1.2698 1.91711 6.82764 71 46 34
1.271 1.82712 6.4714 65 38 16
-0.932908 2.80193 9.39523 142 110 90
-0.159742 0.109846 8.2999 64 70 54
-0.813732 0.770374 6.21461 37 46 28
-1.12454 0.819819 6.03281 93 58 40
-0.16609 1.30176 7.65828 48 18 11
0.99385 1.74447 8.40078 64 38 34
1.26067 1.7754 6.47899 170 160 151
0.222969 2.69293 8.66201 110 72 73
-0.219567 2.906 8.71087 147 100 84
-0.10113 -1.19299 8.85857 176 179 128
1.60677 0.351551 8.03837 130 146 105
-0.120601 0.645247 7.08561 78 40 28
-1.1063 0.659456 6.15326 158 111 82
0.909579 1.28852 7.91042 75 49 44
-0.146699 2.14808 8.10382 100 68 61
-2.83468 -2.63664 8.11844 56 54 26
2.62402 -2.14811 7.26397 144 142 100
1.43099 -1.35096 7.53672 76 84 59
1.28552 -1.23024 7.60736 92 98 79
0.885537 -0.863486 7.83516 101 104 92
0.285247 0.919007 7.3108 132 89 74
-1.50987 1.49798 9.36353 71 56 36
0.0560676 -0.0678893 8.50063 110 112 106
-0.142195 1.51692 7.78428 114 88 82
-2.69717 -2.71638 8.23657 163 162 116
2.37311 -1.97238 6.56374 108 110 71
-1.85651 -0.429384 8.55042 109 78 56
0.0513235 -0.00246777 8.5788 144 144 143
1.38037 0.504801 8.09911 130 86 64
-1.64778 -1.82768 8.47667 119 120 76
0.202377 0.293329 8.85519 12 7 2
0.410704 2.02263 8.14837 98 78 76
-0.951867 -2.54774 9.32166 96 103 68
-0.886238 1.30586 7.59144 27 6 4
-1.65507 -1.84012 8.52222 128 128 84
1.93595 -0.473095 8.37801 108 73 42
1.90337 -0.299519 8.21224 140 101 81
1.29098 1.84856 6.51737 82 54 31
1.74767 -1.80684 7.65485 109 111 74
0.699181 1.33299 7.86216 54 25 22
2.09314 -0.947599 8.4187 84 76 42
-0.150797 2.52037 8.48022 74 25 16
-0.0962203 2.54155 8.53102 102 60 53
-0.0575067 0.230302 8.85194 114 116 102
0.268542 3.01531 8.97941 108 74 71
-0.276671 1.58862 11.6679 95 66 56
-1.35755 2.23364 9.72228 138 116 94
-2.73014 0.894497 10.9298 107 93 74
-0.825117 -0.408347 7.45665 131 130 92
1.13497 1.1145 8.0626 70 57 52
0.819693 1.72978 8.84378 39 17 13
0.812508 1.72452 8.84274 52 29 26
0.0881483 1.08022 9.72586 94 71 51
0.860663 1.15337 10.3812 88 60 54
1.43929 0.0195766 7.60076 88 58 44
-0.136932 1.51487 7.79338 123 99 96
-1.65323 0.998812 8.65488 138 126 100
-0.151105 1.01136 8.05402 86 45 28
0.18449 0.304526 8.84313 48 48 39
-0.139992 0.81107 7.30257 64 34 24
-2.50875 -2.5615 8.23399 119 117 72
1.18977 0.323246 7.65357 69 41 23
1.49826 0.839559 8.80245 97 74 54
0.407827 2.38006 8.43616 122 98 94
0.377428 2.73078 8.67569 112 84 82
-0.12129 2.17332 8.19585 106 82 75
0.520259 0.796411 7.41284 36 26 11
1.21659 1.80971 6.66215 172 164 155
0.391481 2.69983 8.7268 101 72 68
1.04604 0.813966 7.08377 130 121 101
-1.04188 -2.76252 9.43937 94 102 67
1.17491 -1.12936 7.70425 84 92 72
-1.0158 -0.990536 8.38481 84 88 58
-2.28874 -1.11444 9.37386 119 118 66
-0.868951 -0.85916 8.41154 84 88 56
-1.1941 -0.813982 8.14714 57 60 28
1.8494 -0.129465 8.13908 124 92 72
-0.148767 1.13439 7.54071 86 53 48
0.722783 1.32608 7.85999 56 26 22
-0.145651 1.29639 7.63547 113 90 85
-0.146084 1.33338 7.6612 109 85 80
0.451101 1.58551 7.88315 117 92 90
-0.112816 1.9377 8.10547 104 64 56
1.04247 2.79838 9.51018 87 51 43
0.765509 2.73107 9.07715 84 52 48
-0.0569357 2.51304 8.4547 68 23 16
-0.120575 2.51642 8.48338 70 25 16
0.660287 2.92611 9.14266 85 54 51
-0.0776739 2.88624 8.7754 121 85 76
0.160378 2.96706 8.78859 78 40 32
-0.103538 2.98182 8.84018 81 36 21
-1.00767 -1.24742 8.6064 106 111 69
-2.72987 -1.06034 9.3966 54 44 10
1.07337 0.762906 7.58535 104 86 72
1.27746 0.241376 7.98091 41 18 4
1.22012 0.839006 7.69925 106 87 74
1.35858 1.85751 9.08727 84 62 49
1.30954 0.24472 8.09969 40 18 5
-0.22741 -1.07832 8.08121 149 158 106
1.20307 0.865097 7.66707 103 88 73
-0.57014 2.71927 8.9912 106 76 74
1.34187 0.724409 7.89754 106 72 55
1.14761 0.765998 7.85524 149 122 110
1.46759 0.986699 8.47107 127 116 102
1.27412 1.81859 8.88209 85 49 38
1.4385 0.963825 8.37093 126 113 100
1.32024 1.84999 9.0137 84 52 39
-1.50268 1.57518 4.98685 114 106 88
1.95078 -0.500348 8.47361 136 102 72
-1.41884 -0.153344 7.90718 140 126 99
0.0462689 0.215848 8.97349 106 106 99
0.2799 0.260412 9.51354 42 39 30
1.07327 0.514248 7.75889 44 19 9
1.27342 1.7382 6.33599 92 60 36
0.855054 -2.60278 9.16216 146 154 106
1.28882 0.589604 8.19399 85 50 22
0.625033 -1.61569 8.95514 136 140 102
-0.744416 1.89672 8.21202 110 82 75
1.00587 2.59926 9.50925 56 24 19
0.767533 -1.75119 9.96138 130 132 94
1.32721 0.721519 7.78734 86 55 38
1.01218 0.791528 6.96987 129 106 91
0.56598 -0.933669 7.712 126 132 102
1.62733 -0.55142 11.3996 63 57 28
0.958933 0.759446 6.74698 118 90 78
1.23686 1.68533 6.11725 86 56 32
-0.065013 -1.60719 7.31028 102 110 56
0.650588 -1.02605 8.08151 106 112 80
0.554258 -0.937725 7.67488 102 109 81
-0.160623 0.852857 7.21338 154 126 121
1.42765 2.81321 10.4759 74 40 28
0.928127 -2.72767 9.59122 128 135 90
-0.0563522 -1.6226 7.38308 102 110 56
0.0207447 -1.55442 7.92426 138 146 96
0.581626 -1.59836 8.65862 121 128 86
-0.201873 -0.55672 7.33007 90 86 46
1.6623 0.281939 9.50674 30 11 2
0.462045 -0.886389 7.083 106 112 86
1.2578 -0.448556 10.4963 148 164 118
-0.320844 -0.364959 7.48988 38 44 18
1.09115 0.772104 7.34996 158 130 120
1.0289 1.67718 6.12872 98 74 58
0.669912 -1.07541 8.00496 120 125 100
0.50847 -0.925048 7.33508 102 109 78
1.47966 -0.500422 10.7675 85 74 48
-0.142182 0.00141051 8.22894 129 127 118
-0.102246 0.215738 8.35793 88 88 81
-0.569363 0.600649 7.74103 18 10 7
1.07807 -0.302153 10.0142 109 88 61
1.34266 -0.456789 9.99106 106 104 74
-2.75649 -1.06379 9.48415 80 76 34
1.18717 0.588884 7.86063 54 28 12
-1.57445 -0.325511 11.8556 82 79 48
-1.97176 -0.140598 8.36252 144 112 75
-1.5389 0.137592 8.94643 83 72 54
-1.33361 -0.182409 9.50529 114 108 75
0.182538 0.533978 3.57642 137 114 96
0.168998 0.529486 3.54105 134 122 96
0.662722 0.909684 7.28695 142 120 114
1.23882 -0.291302 9.57819 146 150 108
0.403875 2.38241 8.43989 109 84 80
0.387374 -0.295166 8.42555 136 128 101
1.18156 1.79106 6.71625 123 110 98
-0.190487 -0.572793 7.49763 97 92 46
1.37845 0.531822 8.15937 120 79 52
1.06828 0.626817 7.4509 107 82 62
0.37283 -0.316872 8.23551 97 93 70
